<svg width="16" height="16" viewBox="0 0 16 16" fill="none" xmlns="http://www.w3.org/2000/svg">
<path d="M13.6354 13.6952C12.8908 14.4413 12.0039 15.0297 11.0275 15.4254C10.0511 15.8211 9.00512 16.016 7.95193 15.9986C6.90481 16.0188 5.86458 15.825 4.89481 15.4289C3.92505 15.0329 3.04613 14.443 2.31179 13.6952C1.5603 12.9626 0.967419 12.0829 0.570013 11.1109C0.172607 10.1389 -0.0208169 9.09545 0.00177357 8.04541C0.00177357 5.74604 0.771778 3.83055 2.31179 2.29895C3.04663 1.55227 3.92577 0.963442 4.89552 0.568437C5.86526 0.173431 6.90524 -0.0194589 7.95193 0.00154883C9.0047 -0.0166816 10.0504 0.177313 11.0268 0.571992C12.0031 0.96667 12.8903 1.55397 13.6354 2.29895C15.2108 3.83055 15.9986 5.74604 15.9986 8.04541C16.019 9.09998 15.8193 10.1472 15.4124 11.1201C15.0055 12.0929 14.4002 12.97 13.6354 13.6952Z" fill="#C8C8C8"/>
<path d="M8.00006 2.51428L4.80005 7.96741L8.00006 6.47302V2.51428Z" fill="#8B8B8B"/>
<path d="M8.00006 6.47302L4.80005 7.96742L8.00006 9.90887V6.47302Z" fill="#393939"/>
<path d="M8 2.51428V6.47302L11.1969 7.96741L8 2.51428Z" fill="#343434"/>
<path d="M8 6.47302V9.90887L11.1969 7.96742L8 6.47302Z" fill="#161616"/>
<path d="M4.80005 8.58984L8.00006 13.2215V10.5329L4.80005 8.58984Z" fill="#8B8B8B"/>
<path d="M11.2 8.58984L8 10.5329V13.2215L11.2 8.58984Z" fill="#343434"/>
</svg>
